<svg xmlns="http://www.w3.org/2000/svg" version="1.1" xmlns:xlink="http://www.w3.org/1999/xlink" xmlns:svgjs="http://svgjs.dev/svgjs" width="1000" height="1000" viewBox="0 0 1000 1000"><rect width="1000" height="1000" fill="#ffffff"></rect><g transform="matrix(0.7,0,0,0.7,149.9437910901487,266.03959514170043)"><svg viewBox="0 0 369 247" data-background-color="#ffffff" preserveAspectRatio="xMidYMid meet" height="669" width="1000" xmlns="http://www.w3.org/2000/svg" xmlns:xlink="http://www.w3.org/1999/xlink"><g id="tight-bounds" transform="matrix(1,0,0,1,0.029870073376656592,-0.09999999999999432)"><svg viewBox="0 0 368.94042517741485 247.2" height="247.2" width="368.94042517741485"><g><svg viewBox="0 0 395.52 265.009029446918" height="247.2" width="368.94042517741485"><g transform="matrix(1,0,0,1,0,133.21049092806396)"><svg viewBox="0 0 395.52 131.79853851885406" height="131.79853851885406" width="395.52"><g id="textblocktransform"><svg viewBox="0 0 395.52 131.79853851885406" height="131.79853851885406" width="395.52" id="textblock"><g><svg viewBox="0 0 395.52 102.03674828676932" height="102.03674828676932" width="395.52"><path d="M394.594 21.885C392.735 11.294 387.435 8.349 387.435 8.349 371.165-2.56 350.86-0.209 332.619 1.359 300.414 1.422 268.339 3.752 236.208 5.002 168.767 5.193 100.749 2.058 33.643 9.79 27.339 12.162-6.54 10.256 1.121 23.241 3.129 28.642 10.456 34.637 10.232 39.594 11.236 40.462 12.631 38.471 13.226 39.721 15.309 43.089 18.711 41.5 21.501 43.491 17.614 48.808 20.403 53.235 23.062 57.874 18.377 59.082 12.371 58.51 9.675 62.513 9.396 65.415 7.89 64.865 6.235 64.738 5.026 64.653 2.59 64.971 2.999 65.882 4.394 68.995-1.594 70.796 2.162 73.846-0.422 77.151 3.948 80.01 3.353 83.59 3.278 84.311 3.687 84.925 4.338 85.094 7.22 86.005 3.018 87.784 3.464 89.712 33.029 102.888 65.104 93.779 95.394 99.837 103.259 95.601 97.346 101.341 100.489 100.452 102.943 99.414 104.728 103.714 107.499 101.278 107.927 100.579 107.276 98.927 108.8 99.244 109.6 99.414 110.307 99.371 110.418 98.397 110.586 96.935 109.117 97.846 108.726 97.084 112.947 93.228 111.906 102.401 115.866 102.019 115.68 100.897 114.528 99.287 116.889 99.499 119.232 97.889 119.306 96.554 121.389 100.176 121.463 100.96 121.835 101.511 122.43 101.892 128.938 97.952 135.409 103.29 142.233 101.511 146.417 99.562 150.433 102.57 154.672 101.829 156.16 101.236 157.666 100.176 159.098 101.956 176.632 102.337 195.319 100.748 211.943 102.019 256.364 99.647 303.835 102.994 350.674 99.859 361.719 98.651 373.192 96.935 383.958 95.559 383.958 95.559 392.679 91.788 392.679 74.842S394.538 60.014 394.817 46.52C395.096 33.027 396.398 32.476 394.538 21.885Z" opacity="1" fill="#000000" data-fill-palette-color="tertiary"></path><g transform="matrix(1,0,0,1,55.76832,26.068561146666667)"><svg width="283.98335999999995" viewBox="0.30000001192092896 -34.150001525878906 198.0399932861328 34.80000305175781" height="49.89962599343599" data-palette-color="#ffffff"><path d="M20.8 0L4.25 0 0.3-33.5 11.85-33.5 13.45-11.7 14.35-11.7 16.6-33 29.25-33 31.75-11.7 32.65-11.7 33.65-33.5 45.3-33.5 41.6 0 24.65 0 23-20.6 22.5-20.65 20.8 0ZM55.45 0L44.05 0 51.45-33.5 69-33.5 76.55 0 64.85 0 63.9-3.85 56.25-3.85 55.45 0ZM60.9-24.4L59.65-24.4 57.75-12.7 62.7-12.7 60.9-24.4ZM80.75-24.05L73.85-24.05 73.85-33.5 98.85-33.5 98.85-24.05 92.35-24.05 92.35 0 80.75 0 80.75-24.05ZM124.69-9.45L124.84-0.65Q119.54 0.65 113.99 0.65 108.44 0.65 105.44-0.93 102.44-2.5 101.12-6.2 99.79-9.9 99.79-16.85L99.79-16.85Q99.79-26.8 102.87-30.48 105.94-34.15 114.59-34.15L114.59-34.15Q118.19-34.15 123.09-33.15L123.09-33.15 124.84-32.8 124.54-23.85Q120.44-24.35 116.97-24.35 113.49-24.35 112.49-23.03 111.49-21.7 111.49-17.55 111.49-13.4 111.97-11.8 112.44-10.2 113.49-9.68 114.54-9.15 116.89-9.15L116.89-9.15 124.69-9.45ZM156.79 0L145.19 0 145.19-11.7 138.64-11.7 138.64 0 127.04 0 127.04-33.5 138.64-33.5 138.64-21.15 145.19-21.15 145.19-33.5 156.79-33.5 156.79 0ZM171.39 0L159.79 0 159.79-33.5 171.39-33.5 171.39 0ZM180.24-24.05L173.34-24.05 173.34-33.5 198.34-33.5 198.34-24.05 191.84-24.05 191.84 0 180.24 0 180.24-24.05Z" opacity="1" transform="matrix(1,0,0,1,0,0)" fill="#ffffff" class="wordmark-text-0" data-fill-palette-color="quaternary" id="text-0"></path></svg></g></svg></g><g transform="matrix(1,0,0,1,75.54432,113.81685239279572)"><svg viewBox="0 0 244.43135999999998 17.981686126058325" height="17.981686126058325" width="244.43135999999998"><g transform="matrix(1,0,0,1,0,0)"><svg width="244.43135999999998" viewBox="3.25 -37.70000076293945 518.989990234375 38.19000244140625" height="17.981686126058325" data-palette-color="#61777f"><path d="M27.25-7.01L27.25 0 3.25 0 3.25-35.01 27.25-35.01 27.25-28 10.25-28 10.25-21 21.75-21 21.75-13.99 10.25-13.99 10.25-7.01 27.25-7.01ZM38.11-14.94L38.11 0 31.44 0 31.44-26.15 33.05-26.15 35.25-23.61Q36.86-25.07 38.9-25.87 40.94-26.66 43.16-26.66L43.16-26.66Q45.55-26.66 47.68-25.74 49.8-24.83 51.39-23.23 52.98-21.63 53.89-19.49 54.81-17.36 54.81-14.94L54.81-14.94 54.81 0 48.14 0 48.14-14.94Q48.14-15.97 47.75-16.88 47.36-17.8 46.68-18.48 45.99-19.17 45.09-19.56 44.19-19.95 43.16-19.95L43.16-19.95Q42.11-19.95 41.18-19.56 40.26-19.17 39.57-18.48 38.89-17.8 38.5-16.88 38.11-15.97 38.11-14.94L38.11-14.94ZM84.81-36.55L84.81 0 83.2 0 80.61-3.59Q79.66-2.73 78.6-1.99 77.53-1.25 76.36-0.7 75.19-0.15 73.96 0.17 72.72 0.49 71.45 0.49L71.45 0.49Q68.7 0.49 66.27-0.55 63.84-1.59 62.02-3.43 60.2-5.27 59.15-7.8 58.1-10.33 58.1-13.31L58.1-13.31Q58.1-16.26 59.15-18.8 60.2-21.34 62.02-23.19 63.84-25.05 66.27-26.1 68.7-27.15 71.45-27.15L71.45-27.15Q72.33-27.15 73.27-27 74.21-26.86 75.1-26.53 76-26.2 76.78-25.66 77.56-25.12 78.1-24.34L78.1-24.34 78.1-36.55 84.81-36.55ZM78.1-13.31L78.1-13.31Q78.1-14.67 77.57-15.95 77.05-17.24 76.14-18.23 75.24-19.21 74.03-19.81 72.82-20.41 71.45-20.41L71.45-20.41Q70.09-20.41 68.88-19.92 67.67-19.43 66.78-18.52 65.89-17.6 65.38-16.28 64.86-14.97 64.86-13.31L64.86-13.31Q64.86-11.87 65.38-10.57 65.89-9.28 66.78-8.3 67.67-7.32 68.88-6.76 70.09-6.2 71.45-6.2L71.45-6.2Q72.82-6.2 74.03-6.8 75.24-7.4 76.14-8.39 77.05-9.38 77.57-10.66 78.1-11.94 78.1-13.31ZM96.6-36.55L96.6 0 89.89 0 89.89-36.55 96.6-36.55ZM124.57-21.46L112.07-6.4Q112.47-6.27 112.86-6.24 113.25-6.2 113.64-6.2L113.64-6.2Q114.61-6.2 115.52-6.47 116.42-6.74 117.21-7.24 118.01-7.74 118.63-8.46 119.25-9.18 119.64-10.06L119.64-10.06 124.53-5.15Q123.6-3.83 122.39-2.78 121.18-1.73 119.78-1 118.37-0.27 116.82 0.11 115.27 0.49 113.64 0.49L113.64 0.49Q110.88 0.49 108.45-0.54 106.02-1.56 104.2-3.39 102.38-5.22 101.33-7.75 100.28-10.28 100.28-13.31L100.28-13.31Q100.28-16.41 101.33-18.97 102.38-21.53 104.2-23.34 106.02-25.15 108.45-26.15 110.88-27.15 113.64-27.15L113.64-27.15Q115.27-27.15 116.84-26.76 118.4-26.37 119.8-25.63 121.21-24.9 122.43-23.84 123.65-22.78 124.57-21.46L124.57-21.46ZM107.73-9.84L115.49-20.14Q115.03-20.31 114.58-20.36 114.13-20.41 113.64-20.41L113.64-20.41Q112.27-20.41 111.06-19.91 109.85-19.41 108.96-18.48 108.07-17.55 107.56-16.25 107.05-14.94 107.05-13.31L107.05-13.31Q107.05-12.94 107.08-12.48 107.12-12.01 107.2-11.54 107.29-11.06 107.41-10.62 107.53-10.18 107.73-9.84L107.73-9.84ZM142.27 0L142.27 0 127.04 0 127.04-6.64 142.27-6.64Q142.96-6.64 143.44-7.13 143.93-7.62 143.93-8.3L143.93-8.3Q143.93-9.01 143.44-9.23 142.96-9.45 142.27-9.45L142.27-9.45 135.34-9.45Q133.61-9.45 132.09-10.11 130.58-10.77 129.46-11.9 128.33-13.04 127.69-14.55 127.04-16.06 127.04-17.8L127.04-17.8Q127.04-19.53 127.69-21.04 128.33-22.56 129.46-23.68 130.58-24.8 132.09-25.45 133.61-26.1 135.34-26.1L135.34-26.1 148.84-26.1 148.84-19.46 135.34-19.46Q134.66-19.46 134.17-18.97 133.68-18.48 133.68-17.8L133.68-17.8Q133.68-17.09 134.17-16.59 134.66-16.09 135.34-16.09L135.34-16.09 142.27-16.09Q143.98-16.09 145.5-15.52 147.01-14.94 148.13-13.92 149.26-12.89 149.91-11.45 150.57-10.01 150.57-8.3L150.57-8.3Q150.57-6.57 149.91-5.07 149.26-3.56 148.13-2.43 147.01-1.29 145.5-0.65 143.98 0 142.27 0ZM168.47 0L168.47 0 153.23 0 153.23-6.64 168.47-6.64Q169.15-6.64 169.64-7.13 170.13-7.62 170.13-8.3L170.13-8.3Q170.13-9.01 169.64-9.23 169.15-9.45 168.47-9.45L168.47-9.45 161.53-9.45Q159.8-9.45 158.29-10.11 156.77-10.77 155.65-11.9 154.53-13.04 153.88-14.55 153.23-16.06 153.23-17.8L153.23-17.8Q153.23-19.53 153.88-21.04 154.53-22.56 155.65-23.68 156.77-24.8 158.29-25.45 159.8-26.1 161.53-26.1L161.53-26.1 175.03-26.1 175.03-19.46 161.53-19.46Q160.85-19.46 160.36-18.97 159.87-18.48 159.87-17.8L159.87-17.8Q159.87-17.09 160.36-16.59 160.85-16.09 161.53-16.09L161.53-16.09 168.47-16.09Q170.18-16.09 171.69-15.52 173.2-14.94 174.33-13.92 175.45-12.89 176.11-11.45 176.77-10.01 176.77-8.3L176.77-8.3Q176.77-6.57 176.11-5.07 175.45-3.56 174.33-2.43 173.2-1.29 171.69-0.65 170.18 0 168.47 0ZM219-7.01L219 0 195 0 195-35.01 219-35.01 219-28 202.01-28 202.01-21 213.51-21 213.51-13.99 202.01-13.99 202.01-7.01 219-7.01ZM229.86-14.94L229.86 0 223.2 0 223.2-26.15 224.81-26.15 227-23.61Q228.62-25.07 230.65-25.87 232.69-26.66 234.91-26.66L234.91-26.66Q237.31-26.66 239.43-25.74 241.55-24.83 243.14-23.23 244.73-21.63 245.64-19.49 246.56-17.36 246.56-14.94L246.56-14.94 246.56 0 239.89 0 239.89-14.94Q239.89-15.97 239.5-16.88 239.11-17.8 238.43-18.48 237.75-19.17 236.84-19.56 235.94-19.95 234.91-19.95L234.91-19.95Q233.86-19.95 232.94-19.56 232.01-19.17 231.33-18.48 230.64-17.8 230.25-16.88 229.86-15.97 229.86-14.94L229.86-14.94ZM269.12 0L264.06 0Q261.64 0 259.52-0.92 257.4-1.83 255.8-3.43 254.2-5.03 253.28-7.15 252.37-9.28 252.37-11.69L252.37-11.69 252.37-19.46 249.12-19.46 249.12-26.1 252.37-26.1 252.37-36.55 259.01-36.55 259.01-26.1 269.12-26.1 269.12-19.46 259.01-19.46 259.01-11.69Q259.01-10.64 259.4-9.73 259.79-8.81 260.47-8.13 261.16-7.45 262.08-7.04 263.01-6.64 264.06-6.64L264.06-6.64 269.12-6.64 269.12 0ZM295.75-21.46L283.25-6.4Q283.64-6.27 284.03-6.24 284.42-6.2 284.81-6.2L284.81-6.2Q285.79-6.2 286.69-6.47 287.59-6.74 288.39-7.24 289.18-7.74 289.8-8.46 290.43-9.18 290.82-10.06L290.82-10.06 295.7-5.15Q294.77-3.83 293.56-2.78 292.36-1.73 290.95-1 289.55-0.27 288 0.11 286.45 0.49 284.81 0.49L284.81 0.49Q282.05 0.49 279.62-0.54 277.19-1.56 275.38-3.39 273.56-5.22 272.51-7.75 271.46-10.28 271.46-13.31L271.46-13.31Q271.46-16.41 272.51-18.97 273.56-21.53 275.38-23.34 277.19-25.15 279.62-26.15 282.05-27.15 284.81-27.15L284.81-27.15Q286.45-27.15 288.01-26.76 289.57-26.37 290.98-25.63 292.38-24.9 293.6-23.84 294.82-22.78 295.75-21.46L295.75-21.46ZM278.9-9.84L286.67-20.14Q286.2-20.31 285.75-20.36 285.3-20.41 284.81-20.41L284.81-20.41Q283.44-20.41 282.24-19.91 281.03-19.41 280.14-18.48 279.24-17.55 278.73-16.25 278.22-14.94 278.22-13.31L278.22-13.31Q278.22-12.94 278.26-12.48 278.29-12.01 278.38-11.54 278.46-11.06 278.59-10.62 278.71-10.18 278.9-9.84L278.9-9.84ZM305.76-14.4L305.76 0 299.09 0 299.09-26.15 300.7-26.15 302.9-23.05Q304.51-24.51 306.56-25.31 308.61-26.1 310.81-26.1L310.81-26.1 316.69-26.1 316.69-19.46 310.81-19.46Q309.76-19.46 308.83-19.07 307.9-18.68 307.22-17.99 306.54-17.31 306.15-16.38 305.76-15.45 305.76-14.4L305.76-14.4ZM337.96 0L332.9 0Q330.49 0 328.36-0.92 326.24-1.83 324.64-3.43 323.04-5.03 322.12-7.15 321.21-9.28 321.21-11.69L321.21-11.69 321.21-19.46 317.96-19.46 317.96-26.1 321.21-26.1 321.21-36.55 327.85-36.55 327.85-26.1 337.96-26.1 337.96-19.46 327.85-19.46 327.85-11.69Q327.85-10.64 328.24-9.73 328.63-8.81 329.31-8.13 330-7.45 330.92-7.04 331.85-6.64 332.9-6.64L332.9-6.64 337.96-6.64 337.96 0ZM367.01-26.1L367.01 0 365.39 0 362.81-3.59Q361.85-2.73 360.79-1.99 359.73-1.25 358.56-0.7 357.39-0.15 356.15 0.17 354.92 0.49 353.65 0.49L353.65 0.49Q350.89 0.49 348.46-0.44 346.03-1.37 344.22-3.14 342.4-4.91 341.35-7.47 340.3-10.03 340.3-13.31L340.3-13.31Q340.3-16.36 341.35-18.91 342.4-21.46 344.22-23.29 346.03-25.12 348.46-26.14 350.89-27.15 353.65-27.15L353.65-27.15Q354.92-27.15 356.17-26.83 357.41-26.51 358.58-25.95 359.76-25.39 360.82-24.63 361.88-23.88 362.81-23L362.81-23 365.39-26.1 367.01-26.1ZM360.29-13.31L360.29-13.31Q360.29-14.67 359.77-15.95 359.24-17.24 358.34-18.23 357.44-19.21 356.23-19.81 355.02-20.41 353.65-20.41L353.65-20.41Q352.28-20.41 351.08-19.95 349.87-19.48 348.98-18.58 348.09-17.68 347.57-16.35 347.06-15.01 347.06-13.31L347.06-13.31Q347.06-11.6 347.57-10.27 348.09-8.94 348.98-8.03 349.87-7.13 351.08-6.67 352.28-6.2 353.65-6.2L353.65-6.2Q355.02-6.2 356.23-6.8 357.44-7.4 358.34-8.39 359.24-9.38 359.77-10.66 360.29-11.94 360.29-13.31ZM379.94-33.25L379.94-33.25Q379.94-32.32 379.59-31.52 379.23-30.71 378.62-30.11 378.01-29.52 377.2-29.16 376.38-28.81 375.45-28.81L375.45-28.81Q374.52-28.81 373.71-29.16 372.89-29.52 372.29-30.11 371.69-30.71 371.34-31.52 370.98-32.32 370.98-33.25L370.98-33.25Q370.98-34.16 371.34-34.97 371.69-35.79 372.29-36.39 372.89-36.99 373.71-37.34 374.52-37.7 375.45-37.7L375.45-37.7Q376.38-37.7 377.2-37.34 378.01-36.99 378.62-36.39 379.23-35.79 379.59-34.97 379.94-34.16 379.94-33.25ZM378.8-26.15L378.8 0 372.08 0 372.08-26.15 378.8-26.15ZM390.54-14.94L390.54 0 383.87 0 383.87-26.15 385.48-26.15 387.68-23.61Q389.29-25.07 391.33-25.87 393.37-26.66 395.59-26.66L395.59-26.66Q397.98-26.66 400.11-25.74 402.23-24.83 403.82-23.23 405.4-21.63 406.32-19.49 407.24-17.36 407.24-14.94L407.24-14.94 407.24 0 400.57 0 400.57-14.94Q400.57-15.97 400.18-16.88 399.79-17.8 399.11-18.48 398.42-19.17 397.52-19.56 396.62-19.95 395.59-19.95L395.59-19.95Q394.54-19.95 393.61-19.56 392.68-19.17 392-18.48 391.32-17.8 390.93-16.88 390.54-15.97 390.54-14.94L390.54-14.94ZM445.22-16.6L445.22 0 438.58 0 438.58-16.6Q438.58-17.29 438.32-17.9 438.07-18.51 437.6-18.97 437.14-19.43 436.53-19.69 435.92-19.95 435.24-19.95L435.24-19.95Q434.55-19.95 433.95-19.69 433.36-19.43 432.9-18.97 432.45-18.51 432.2-17.9 431.94-17.29 431.94-16.6L431.94-16.6 431.94 0 425.27 0 425.27-16.6Q425.27-17.29 425.02-17.9 424.76-18.51 424.3-18.97 423.83-19.43 423.22-19.69 422.61-19.95 421.93-19.95L421.93-19.95Q421.25-19.95 420.65-19.69 420.05-19.43 419.6-18.97 419.15-18.51 418.89-17.9 418.63-17.29 418.63-16.6L418.63-16.6 418.63 0 411.97 0 411.97-26.15 413.58-26.15 415.39-24.15Q416.78-25.32 418.45-25.96 420.12-26.61 421.93-26.61L421.93-26.61Q423.76-26.61 425.51-25.93 427.25-25.24 428.57-23.56L428.57-23.56Q429.18-24.39 429.96-24.98 430.74-25.56 431.61-25.93 432.48-26.29 433.4-26.45 434.33-26.61 435.24-26.61L435.24-26.61Q437.31-26.61 439.13-25.83 440.95-25.05 442.3-23.69 443.66-22.34 444.44-20.51 445.22-18.68 445.22-16.6L445.22-16.6ZM472.98-21.46L460.48-6.4Q460.87-6.27 461.26-6.24 461.65-6.2 462.04-6.2L462.04-6.2Q463.02-6.2 463.92-6.47 464.82-6.74 465.62-7.24 466.41-7.74 467.03-8.46 467.66-9.18 468.05-10.06L468.05-10.06 472.93-5.15Q472-3.83 470.79-2.78 469.58-1.73 468.18-1 466.78-0.27 465.23 0.11 463.68 0.49 462.04 0.49L462.04 0.49Q459.28 0.49 456.85-0.54 454.42-1.56 452.6-3.39 450.79-5.22 449.74-7.75 448.69-10.28 448.69-13.31L448.69-13.31Q448.69-16.41 449.74-18.97 450.79-21.53 452.6-23.34 454.42-25.15 456.85-26.15 459.28-27.15 462.04-27.15L462.04-27.15Q463.68-27.15 465.24-26.76 466.8-26.37 468.2-25.63 469.61-24.9 470.83-23.84 472.05-22.78 472.98-21.46L472.98-21.46ZM456.13-9.84L463.9-20.14Q463.43-20.31 462.98-20.36 462.53-20.41 462.04-20.41L462.04-20.41Q460.67-20.41 459.46-19.91 458.26-19.41 457.36-18.48 456.47-17.55 455.96-16.25 455.45-14.94 455.45-13.31L455.45-13.31Q455.45-12.94 455.48-12.48 455.52-12.01 455.61-11.54 455.69-11.06 455.81-10.62 455.94-10.18 456.13-9.84L456.13-9.84ZM482.98-14.94L482.98 0 476.32 0 476.32-26.15 477.93-26.15 480.13-23.61Q481.74-25.07 483.78-25.87 485.82-26.66 488.04-26.66L488.04-26.66Q490.43-26.66 492.56-25.74 494.68-24.83 496.27-23.23 497.85-21.63 498.77-19.49 499.68-17.36 499.68-14.94L499.68-14.94 499.68 0 493.02 0 493.02-14.94Q493.02-15.97 492.63-16.88 492.24-17.8 491.55-18.48 490.87-19.17 489.97-19.56 489.06-19.95 488.04-19.95L488.04-19.95Q486.99-19.95 486.06-19.56 485.13-19.17 484.45-18.48 483.77-17.8 483.38-16.88 482.98-15.97 482.98-14.94L482.98-14.94ZM522.24 0L517.19 0Q514.77 0 512.65-0.92 510.52-1.83 508.92-3.43 507.32-5.03 506.41-7.15 505.49-9.28 505.49-11.69L505.49-11.69 505.49-19.46 502.24-19.46 502.24-26.1 505.49-26.1 505.49-36.55 512.13-36.55 512.13-26.1 522.24-26.1 522.24-19.46 512.13-19.46 512.13-11.69Q512.13-10.64 512.52-9.73 512.91-8.81 513.6-8.13 514.28-7.45 515.21-7.04 516.14-6.64 517.19-6.64L517.19-6.64 522.24-6.64 522.24 0Z" opacity="1" transform="matrix(1,0,0,1,0,0)" fill="#000000" class="slogan-text-1" data-fill-palette-color="secondary" id="text-1"></path></svg></g></svg></g></svg></g></svg></g><g transform="matrix(1,0,0,1,122.53318987096526,0)"><svg viewBox="0 0 150.45362025806946 121.43038682203756" height="121.43038682203756" width="150.45362025806946"><g><svg xmlns="http://www.w3.org/2000/svg" xmlns:xlink="http://www.w3.org/1999/xlink" version="1.1" x="0" y="0" viewBox="9.833333015441895 17.581680297851562 80.33332824707031 64.83663940429688" style="enable-background:new 0 0 100 100;" xml:space="preserve" height="121.43038682203756" width="150.45362025806946" class="icon-icon-0" data-fill-palette-color="accent" id="icon-0"><path d="M90.167 37.922c0-11.216-9.125-20.341-20.341-20.34-10.714 0-19.499 8.332-20.265 18.854H12.023c-1.207 0-2.19 0.982-2.19 2.189v41.605c0 1.206 0.982 2.189 2.19 2.188h58.939c1.207 0 2.19-0.982 2.19-2.188V57.97C82.929 56.369 90.167 47.966 90.167 37.922zM70.751 38.837v6.805H12.234V38.837H70.751zM56.476 36.436c0.522-0.921 1.501-1.551 2.633-1.551 1.133 0 2.11 0.63 2.632 1.551H56.476zM12.234 80.017V48.043h58.517v31.974H12.234zM73.152 55.545v-2.616c1.325-1.029 2.112-2.601 2.112-4.291 0-1.699-0.785-3.266-2.112-4.292v-5.721c0-1.206-0.982-2.189-2.19-2.189h-6.647c-0.652-2.273-2.726-3.952-5.206-3.952-2.48 0-4.554 1.678-5.205 3.952h-1.942c0.76-9.197 8.474-16.453 17.864-16.453 9.892 0 17.94 8.048 17.94 17.939C87.766 46.648 81.577 53.976 73.152 55.545z" fill="#000000" data-fill-palette-color="accent"></path><path d="M69.826 21.767c-2.999 0-5.438 2.44-5.438 5.439 0 2.998 2.44 5.438 5.438 5.437s5.438-2.44 5.438-5.437C75.264 24.207 72.825 21.767 69.826 21.767zM69.826 30.243c-1.675 0-3.037-1.362-3.037-3.037s1.362-3.037 3.037-3.038 3.037 1.363 3.037 3.038S71.501 30.243 69.826 30.243z" fill="#000000" data-fill-palette-color="accent"></path><path d="M80.542 32.484c-2.999 0-5.438 2.44-5.438 5.438 0 2.999 2.44 5.438 5.438 5.439s5.438-2.44 5.438-5.439C85.98 34.924 83.541 32.484 80.542 32.484zM80.542 40.96c-1.675 0-3.037-1.362-3.037-3.038 0-1.675 1.362-3.037 3.037-3.037s3.037 1.362 3.037 3.037C83.579 39.598 82.217 40.96 80.542 40.96z" fill="#000000" data-fill-palette-color="accent"></path><circle cx="16.5604" cy="42.1951828" r="1.8" fill="#000000" data-fill-palette-color="accent"></circle><circle cx="22.2779484" cy="42.1951828" r="1.8" fill="#000000" data-fill-palette-color="accent"></circle><circle cx="27.995369" cy="42.1951828" r="1.8" fill="#000000" data-fill-palette-color="accent"></circle><path d="M46.957 62.939l-9.729-5.617c-0.372-0.213-0.829-0.213-1.2 0-0.372 0.215-0.6 0.611-0.6 1.039v11.236c0 0.429 0.229 0.825 0.6 1.04 0.186 0.107 0.393 0.161 0.6 0.16s0.414-0.054 0.6-0.16l9.729-5.618c0.372-0.215 0.6-0.611 0.601-1.04S47.329 63.154 46.957 62.939zM37.829 67.516v-7.075l6.127 3.538L37.829 67.516z" fill="#000000" data-fill-palette-color="accent"></path></svg></g></svg></g><g></g></svg></g><defs></defs></svg><rect width="368.94042517741485" height="247.2" fill="none" stroke="none" visibility="hidden"></rect></g></svg></g></svg>